# xmcd
#
# Track frame offsets: 
#        150
#        15470
#        28262
#        40556
#        65051
#        75537
#        86163
#        98257
#        113355
#        138347
#        154813
#        171804
#        181403
#        199781
#        214988
#        229857
#        248804
#        264812
#
# Disc length: 3801 seconds
#
# Revision: 1
# Processed by: cddbd v1.5.2PL0 Copyright (c) Steve Scherf et al.
# Submitted via: ExactAudioCopy v0.99pb5
#
DISCID=e10ed712
DTITLE=Claude Nougaro - Les 100 plus belles chansons - CD4 - Ami chemi
DTITLE=n
DYEAR=2006
DGENRE=Jazz
TTITLE0=Le coq et la pendule
TTITLE1=Faire une chanson qui t'aille
TTITLE2=Hymne (Con Alma)
TTITLE3=Ça fait mal (I Got It Bad And That Ain't Good)
TTITLE4=Le chat (The Cat)
TTITLE5=Le piano de mauvaise vie (Jeru)
TTITLE6=Nous voici
TTITLE7=Rimes
TTITLE8=Un été (Estate)
TTITLE9=Ami chemin
TTITLE10=Very Nice
TTITLE11=Bleu Blanc Blues
TTITLE12=Sa Majesté le Jazz
TTITLE13=Femme orchestre
TTITLE14=Réunion
TTITLE15=Vie violence
TTITLE16=Les pas
TTITLE17=C'est une Garonne
EXTD=YEAR: 2006
EXTT0=
EXTT1=
EXTT2=
EXTT3=
EXTT4=
EXTT5=
EXTT6=
EXTT7=
EXTT8=
EXTT9=
EXTT10=
EXTT11=
EXTT12=
EXTT13=
EXTT14=
EXTT15=
EXTT16=
EXTT17=
PLAYORDER=
